<svg width="390" height="844" viewBox="0 0 390 844" fill="none" xmlns="http://www.w3.org/2000/svg">
  <rect width="390" height="844" fill="#FFFFFF"/>
  <text x="28" y="36" fill="#111111" font-family="Arial, sans-serif" font-size="18" font-weight="700">15.37</text>
  <rect x="120" y="12" width="150" height="34" rx="17" fill="#0B0B0B"/>
  <text x="18" y="86" fill="#111111" font-family="Arial, sans-serif" font-size="28" font-weight="700">Madplan</text>
  <text x="18" y="114" fill="#7A7A7A" font-family="Arial, sans-serif" font-size="16">Uge 48 · 25 Nov - 1 Dec</text>
  <g transform="translate(18 132)">
    <rect width="102" height="40" rx="20" fill="#FF8A1C"/>
    <text x="21" y="25" fill="#FFFFFF" font-family="Arial, sans-serif" font-size="16" font-weight="700">Denne uge</text>
    <rect x="112" width="100" height="40" rx="20" fill="#F3F0EB"/>
    <text x="138" y="25" fill="#666666" font-family="Arial, sans-serif" font-size="16" font-weight="700">Næste uge</text>
    <rect x="222" width="106" height="40" rx="20" fill="#F3F0EB"/>
    <text x="250" y="25" fill="#666666" font-family="Arial, sans-serif" font-size="16" font-weight="700">Om 2 uger</text>
  </g>
  <g transform="translate(18 198)">
    <rect width="354" height="98" rx="22" fill="#FFFFFF" stroke="#EFE8E0"/>
    <rect x="16" y="16" width="68" height="66" rx="16" fill="#DDE7EF"/>
    <text x="100" y="32" fill="#8A8A8A" font-family="Arial, sans-serif" font-size="13">tors. 05.03</text>
    <text x="100" y="58" fill="#222222" font-family="Arial, sans-serif" font-size="18" font-weight="700">Boller i karry</text>
    <rect x="100" y="68" width="62" height="24" rx="12" fill="#FFF2E2"/>
    <text x="114" y="84" fill="#FF8A1C" font-family="Arial, sans-serif" font-size="13" font-weight="700">◷ 45 min</text>
    <rect x="170" y="68" width="58" height="24" rx="12" fill="#EAF7E8"/>
    <text x="186" y="84" fill="#6AB86F" font-family="Arial, sans-serif" font-size="13" font-weight="700">Skift</text>
  </g>
  <g transform="translate(18 312)">
    <rect width="354" height="98" rx="22" fill="#FFFFFF" stroke="#EFE8E0"/>
    <rect x="16" y="16" width="68" height="66" rx="16" fill="#EAD7C3"/>
    <text x="100" y="32" fill="#8A8A8A" font-family="Arial, sans-serif" font-size="13">fre. 06.03</text>
    <text x="100" y="58" fill="#222222" font-family="Arial, sans-serif" font-size="18" font-weight="700">Brændende kærlighed</text>
    <rect x="100" y="68" width="62" height="24" rx="12" fill="#FFF2E2"/>
    <text x="114" y="84" fill="#FF8A1C" font-family="Arial, sans-serif" font-size="13" font-weight="700">◷ 45 min</text>
    <rect x="170" y="68" width="58" height="24" rx="12" fill="#EAF7E8"/>
    <text x="186" y="84" fill="#6AB86F" font-family="Arial, sans-serif" font-size="13" font-weight="700">Skift</text>
  </g>
  <g transform="translate(18 426)">
    <rect width="354" height="98" rx="22" fill="#FFFFFF" stroke="#EFE8E0"/>
    <rect x="16" y="16" width="68" height="66" rx="16" fill="#E6EAD6"/>
    <text x="100" y="32" fill="#8A8A8A" font-family="Arial, sans-serif" font-size="13">lør. 07.03</text>
    <text x="100" y="58" fill="#222222" font-family="Arial, sans-serif" font-size="18" font-weight="700">Frikadeller med kartofler</text>
    <rect x="100" y="68" width="64" height="24" rx="12" fill="#FFF2E2"/>
    <text x="114" y="84" fill="#FF8A1C" font-family="Arial, sans-serif" font-size="13" font-weight="700">◷ 60 min</text>
    <rect x="172" y="68" width="58" height="24" rx="12" fill="#EAF7E8"/>
    <text x="188" y="84" fill="#6AB86F" font-family="Arial, sans-serif" font-size="13" font-weight="700">Skift</text>
  </g>
  <g transform="translate(18 552)">
    <rect width="354" height="98" rx="22" fill="#FFF0E4" stroke="#FF8A1C" stroke-dasharray="8 8"/>
    <text x="76" y="52" fill="#FF8A1C" font-family="Arial, sans-serif" font-size="18" font-weight="700">Generer ny madplan</text>
    <text x="88" y="74" fill="#A56B3F" font-family="Arial, sans-serif" font-size="15">Baseret på dine præferencer</text>
  </g>
  <g transform="translate(18 662)">
    <rect width="354" height="90" rx="22" fill="#FFFFFF" stroke="#D6D0C8" stroke-width="2"/>
    <text x="92" y="46" fill="#333333" font-family="Arial, sans-serif" font-size="18" font-weight="700">Opret indkøbsliste</text>
    <text x="98" y="68" fill="#7A7A7A" font-family="Arial, sans-serif" font-size="15">Baseret på ugens madplan</text>
  </g>
</svg>
