<svg width="390" height="844" viewBox="0 0 390 844" fill="none" xmlns="http://www.w3.org/2000/svg">
  <rect width="390" height="844" fill="#FFFFFF"/>
  <text x="28" y="36" fill="#111111" font-family="Arial, sans-serif" font-size="18" font-weight="700">15.33</text>
  <rect x="120" y="12" width="150" height="34" rx="17" fill="#0B0B0B"/>
  <text x="18" y="86" fill="#111111" font-family="Arial, sans-serif" font-size="25" font-weight="700">Tilbud Uge 12</text>
  <text x="18" y="112" fill="#737373" font-family="Arial, sans-serif" font-size="15">6 varer · 10 butikker</text>
  <circle cx="332" cy="86" r="18" fill="#F4F1EB"/>
  <circle cx="370" cy="86" r="18" fill="#FF8A1C"/>
  <g transform="translate(18 132)">
    <rect width="66" height="28" rx="14" fill="#F1EDE7"/>
    <text x="19" y="19" fill="#4A4A4A" font-family="Arial, sans-serif" font-size="13" font-weight="700">Meny</text>
    <rect x="74" width="104" height="28" rx="14" fill="#F1EDE7"/>
    <text x="102" y="19" fill="#4A4A4A" font-family="Arial, sans-serif" font-size="13" font-weight="700">Min købmand</text>
    <rect x="188" width="68" height="28" rx="14" fill="#FFCA28"/>
    <text x="208" y="19" fill="#111111" font-family="Arial, sans-serif" font-size="13" font-weight="700">Netto</text>
    <rect x="266" width="94" height="28" rx="14" fill="#F1EDE7"/>
    <text x="292" y="19" fill="#666666" font-family="Arial, sans-serif" font-size="13" font-weight="700">Rema 1000</text>
  </g>
  <g transform="translate(18 170)">
    <rect width="52" height="28" rx="14" fill="#111111"/>
    <text x="16" y="19" fill="#FFFFFF" font-family="Arial, sans-serif" font-size="13" font-weight="700">Alle</text>
    <rect x="60" width="62" height="28" rx="14" fill="#F1EDE7"/>
    <text x="78" y="19" fill="#666666" font-family="Arial, sans-serif" font-size="13" font-weight="700">Mejeri</text>
    <rect x="130" width="84" height="28" rx="14" fill="#F1EDE7"/>
    <text x="154" y="19" fill="#666666" font-family="Arial, sans-serif" font-size="13" font-weight="700">Kød &amp; fisk</text>
    <rect x="222" width="96" height="28" rx="14" fill="#F1EDE7"/>
    <text x="248" y="19" fill="#666666" font-family="Arial, sans-serif" font-size="13" font-weight="700">Grøntsager</text>
  </g>
  <rect x="18" y="210" width="354" height="42" fill="#FFCD1F"/>
  <text x="34" y="237" fill="#111111" font-family="Arial, sans-serif" font-size="20" font-weight="700">Netto</text>
  <text x="300" y="237" fill="#5A4A00" font-family="Arial, sans-serif" font-size="14">6 varer</text>
  <g transform="translate(18 264)">
    <rect width="168" height="252" rx="18" fill="#FFFFFF" stroke="#EDE7DF"/>
    <rect x="114" y="10" width="44" height="24" rx="12" fill="#FF6258"/>
    <text x="122" y="27" fill="#FFFFFF" font-family="Arial, sans-serif" font-size="12" font-weight="700">-50%</text>
    <rect x="0" y="174" width="168" height="78" rx="0" fill="#FF8A1C"/>
    <text x="18" y="208" fill="#2B2B2B" font-family="Arial, sans-serif" font-size="13" font-weight="700">La Campagna hummus med</text>
    <text x="18" y="224" fill="#2B2B2B" font-family="Arial, sans-serif" font-size="13" font-weight="700">chili</text>
    <text x="18" y="243" fill="#979797" font-family="Arial, sans-serif" font-size="12" text-decoration="line-through">20.13 kr</text>
    <text x="76" y="243" fill="#FF5A3D" font-family="Arial, sans-serif" font-size="15" font-weight="700">9.97 kr</text>
  </g>
  <g transform="translate(204 264)">
    <rect width="168" height="252" rx="18" fill="#FFFFFF" stroke="#EDE7DF"/>
    <rect x="114" y="10" width="44" height="24" rx="12" fill="#FF6258"/>
    <text x="122" y="27" fill="#FFFFFF" font-family="Arial, sans-serif" font-size="12" font-weight="700">-50%</text>
    <rect x="0" y="174" width="168" height="78" rx="0" fill="#FF8A1C"/>
    <text x="18" y="208" fill="#2B2B2B" font-family="Arial, sans-serif" font-size="13" font-weight="700">Lime</text>
    <text x="18" y="243" fill="#979797" font-family="Arial, sans-serif" font-size="12" text-decoration="line-through">3.50 kr</text>
    <text x="74" y="243" fill="#FF5A3D" font-family="Arial, sans-serif" font-size="15" font-weight="700">1.75 kr</text>
  </g>
  <rect x="0" y="770" width="390" height="74" fill="#FFF4E7"/>
  <text x="48" y="808" fill="#4A4A4A" font-family="Arial, sans-serif" font-size="14" font-weight="700">Hjem</text>
  <text x="132" y="808" fill="#7A7A7A" font-family="Arial, sans-serif" font-size="14">Kalender</text>
  <text x="212" y="808" fill="#7A7A7A" font-family="Arial, sans-serif" font-size="14">Opskrifter</text>
  <text x="314" y="808" fill="#7A7A7A" font-family="Arial, sans-serif" font-size="14">Profil</text>
</svg>
